<?xml version="1.0" standalone="no"?>
<!DOCTYPE svg PUBLIC "-//W3C//DTD SVG 20010904//EN"
 "http://www.w3.org/TR/2001/REC-SVG-20010904/DTD/svg10.dtd">
<svg version="1.0" xmlns="http://www.w3.org/2000/svg"
 width="410.000000pt" height="410.000000pt" viewBox="0 0 410.000000 410.000000"
 preserveAspectRatio="xMidYMid meet">

<g transform="translate(0.000000,410.000000) scale(0.100000,-0.100000)"
fill="#000000" stroke="none">
<path d="M543 2991 c-17 -11 -37 -29 -42 -40 -7 -12 -11 -90 -11 -195 l0 -176
50 0 49 0 3 158 3 157 380 0 380 0 2 -100 c4 -158 -7 -145 134 -145 l121 0 39
43 c21 23 39 44 39 47 0 3 -59 64 -130 135 l-130 130 -428 3 c-409 2 -428 1
-459 -17z"/>
<path d="M742 2668 c-18 -18 -14 -46 7 -58 12 -6 111 -10 251 -10 140 0 239 4
251 10 21 12 25 40 7 58 -17 17 -499 17 -516 0z"/>
<path d="M3610 2340 l0 -270 50 0 50 0 0 270 0 270 -50 0 -50 0 0 -270z"/>
<path d="M1960 2325 l0 -255 45 0 45 0 0 95 0 95 40 0 c22 0 40 -4 40 -9 0 -5
22 -47 48 -93 l48 -83 52 -3 c29 -2 52 0 52 3 0 3 -25 49 -56 101 -31 53 -54
96 -52 98 1 1 16 10 31 20 33 20 66 87 67 130 0 53 -37 113 -84 135 -35 18
-62 21 -159 21 l-117 0 0 -255z m230 155 c13 -13 20 -33 20 -59 0 -55 -34 -81
-106 -81 l-54 0 0 80 0 80 60 0 c47 0 64 -4 80 -20z"/>
<path d="M350 2481 c-5 -11 -10 -78 -10 -150 l0 -131 -138 0 c-192 0 -182 10
-182 -189 0 -119 3 -161 13 -169 8 -7 72 -13 158 -14 l144 -3 5 -143 c6 -184
-4 -174 188 -170 114 2 145 6 152 18 5 8 10 77 10 153 l0 137 135 0 c133 0
137 1 162 26 45 45 31 76 -103 224 -104 115 -121 129 -153 132 l-36 3 -3 134
c-1 79 -7 140 -14 148 -8 10 -49 13 -164 13 -141 0 -154 -2 -164 -19z"/>
<path d="M867 2466 c-3 -8 5 -23 17 -35 21 -20 32 -21 262 -21 131 0 245 4
252 9 8 4 12 19 10 32 l-3 24 -266 3 c-222 2 -268 0 -272 -12z"/>
<path d="M1718 2401 l-48 -53 0 -468 c0 -440 -1 -468 -18 -483 -17 -15 -68
-17 -521 -17 -327 0 -509 4 -522 10 -10 6 -19 20 -19 30 0 17 -7 20 -50 20
l-50 0 0 -46 c0 -37 5 -51 29 -75 l29 -29 580 0 579 0 26 26 c15 14 29 40 32
58 3 17 4 267 3 555 l-3 525 -47 -53z"/>
<path d="M2452 2434 c-153 -78 -126 -341 38 -369 84 -14 162 13 191 66 9 17 5
21 -22 33 -28 12 -35 12 -47 -1 -55 -55 -146 -31 -154 41 l-3 28 125 2 125 1
-3 43 c-3 57 -33 114 -74 143 -42 30 -130 37 -176 13z m126 -70 c12 -8 22 -26
22 -40 0 -23 -2 -24 -75 -24 l-75 0 11 28 c19 51 72 68 117 36z"/>
<path d="M2831 2432 c-53 -29 -76 -82 -76 -172 0 -123 46 -175 154 -175 43 0
64 6 89 23 26 19 32 21 32 7 0 -25 -25 -79 -44 -94 -24 -20 -114 -19 -152 2
-31 16 -31 16 -53 -14 -22 -29 -22 -31 -4 -44 24 -18 92 -35 140 -35 92 0 174
50 193 118 5 20 10 117 10 215 l0 177 -45 0 c-33 0 -45 -4 -45 -15 0 -19 -9
-19 -32 2 -29 26 -125 29 -167 5z m164 -82 c12 -14 20 -41 23 -80 4 -53 2 -61
-21 -84 -28 -28 -73 -34 -107 -16 -44 24 -50 140 -9 181 26 26 90 26 114 -1z"/>
<path d="M3864 2441 c-21 -9 -74 -66 -74 -81 0 -4 16 -11 35 -14 28 -6 41 -2
62 13 47 38 103 18 103 -35 0 -22 -4 -24 -47 -24 -27 -1 -70 -9 -98 -18 -40
-14 -54 -24 -68 -54 -59 -121 95 -223 196 -130 l27 26 0 -27 c0 -25 3 -27 46
-27 l46 0 -4 155 -4 156 -32 31 c-29 29 -38 33 -99 35 -38 2 -77 -1 -89 -6z
m126 -234 c0 -60 -70 -97 -109 -58 -45 45 -11 91 66 91 42 0 43 -1 43 -33z"/>
<path d="M3192 2298 c3 -112 8 -150 22 -176 33 -64 131 -79 197 -31 l29 20 0
-20 c0 -18 6 -21 45 -21 l45 0 0 185 0 185 -45 0 -45 0 0 -124 c0 -103 -3
-127 -17 -145 -23 -28 -81 -37 -108 -18 -18 14 -20 29 -23 151 l-4 136 -50 0
-50 0 4 -142z"/>
<path d="M1400 2055 l-34 -35 81 0 c87 0 110 12 98 50 -5 17 -15 20 -59 20
-46 0 -56 -4 -86 -35z"/>
<path d="M3080 1913 c-63 -20 -107 -59 -142 -125 -19 -35 -23 -59 -23 -133 0
-76 4 -98 25 -140 48 -96 163 -143 270 -112 61 18 97 45 129 97 32 53 28 60
-29 60 -27 0 -50 -4 -50 -9 0 -5 -14 -23 -31 -40 -24 -25 -39 -31 -72 -31 -91
0 -153 81 -145 188 8 100 52 159 126 169 42 5 100 -27 117 -65 9 -20 15 -22
55 -16 25 4 47 8 49 10 2 2 -2 17 -9 34 -17 41 -81 97 -127 109 -39 11 -116
13 -143 4z"/>
<path d="M1960 1655 l0 -255 45 0 45 0 2 177 3 177 54 -85 c30 -46 81 -126
114 -176 l60 -93 48 0 49 0 0 255 0 255 -45 0 -45 0 -2 -172 -3 -173 -110 172
-110 173 -52 0 -53 0 0 -255z"/>
<path d="M2610 1907 c0 -3 -86 -248 -134 -382 -20 -55 -36 -106 -36 -112 0 -9
16 -13 48 -13 l48 0 18 55 17 55 98 0 97 0 18 -55 17 -55 50 0 c27 0 49 3 49
7 0 8 -107 326 -144 428 -15 38 -26 71 -26 72 0 2 -27 3 -60 3 -33 0 -60 -1
-60 -3z m93 -196 c15 -49 27 -94 27 -100 0 -7 -24 -11 -66 -11 -49 0 -65 3
-61 13 2 6 17 51 33 100 15 48 31 87 34 87 3 0 17 -40 33 -89z"/>
<path d="M1095 1830 c-15 -47 3 -51 229 -48 l211 3 3 33 3 32 -220 0 c-213 0
-220 -1 -226 -20z"/>
<path d="M822 1648 c-15 -15 -15 -41 0 -56 14 -14 684 -17 706 -3 8 5 12 21
10 37 l-3 29 -350 3 c-265 2 -354 -1 -363 -10z"/>
</g>
</svg>
