<?xml version="1.0" standalone="no"?>
<!DOCTYPE svg PUBLIC "-//W3C//DTD SVG 20010904//EN"
 "http://www.w3.org/TR/2001/REC-SVG-20010904/DTD/svg10.dtd">
<svg version="1.0" xmlns="http://www.w3.org/2000/svg"
 width="1224.000000pt" height="768.000000pt" viewBox="0 0 1224.000000 768.000000"
 preserveAspectRatio="xMidYMid meet">

<g transform="translate(0.000000,768.000000) scale(0.100000,-0.100000)"
fill="#000000" stroke="none">
<path d="M5745 7669 c-1105 -69 -2151 -415 -3065 -1016 -729 -479 -1334 -1084
-1813 -1813 -377 -574 -659 -1213 -832 -1884 -14 -54 -25 -102 -25 -107 0 -5
97 -9 219 -9 l218 0 28 98 c147 518 413 1096 722 1567 254 387 492 675 829
1005 1378 1349 3314 1930 5229 1569 1534 -289 2914 -1208 3793 -2525 326 -488
597 -1073 762 -1641 l21 -73 199 0 c110 0 200 4 200 9 0 5 -11 53 -25 107
-358 1389 -1171 2606 -2320 3469 -1093 821 -2429 1262 -3795 1254 -118 -1
-273 -6 -345 -10z"/>
<path d="M5860 5595 l0 -275 -220 0 -220 0 0 -1060 0 -1060 720 0 720 0 0
1060 0 1060 -225 0 -225 0 0 275 0 275 -275 0 -275 0 0 -275z m238 83 l3 -48
40 0 39 0 0 50 c0 47 2 50 25 50 l26 0 -3 -132 c-3 -125 -4 -133 -23 -133 -17
0 -21 8 -25 55 l-5 55 -37 3 -37 3 -3 -58 c-3 -54 -5 -58 -28 -58 l-25 0 -3
133 -3 133 28 -3 c26 -3 28 -7 31 -50z m-88 -733 l0 -215 -215 0 -215 0 0 215
0 215 215 0 215 0 0 -215z m690 0 l0 -215 -215 0 -215 0 0 215 0 215 215 0
215 0 0 -215z m-690 -680 l0 -215 -215 0 -215 0 0 215 0 215 215 0 215 0 0
-215z m690 0 l0 -215 -215 0 -215 0 0 215 0 215 215 0 215 0 0 -215z m-690
-690 l0 -215 -215 0 -215 0 0 215 0 215 215 0 215 0 0 -215z m690 0 l0 -215
-215 0 -215 0 0 215 0 215 215 0 215 0 0 -215z"/>
</g>
</svg>
